<svg id="Шар_1" data-name="Шар 1" xmlns="http://www.w3.org/2000/svg" xmlns:xlink="http://www.w3.org/1999/xlink" viewBox="0 0 242.97 152.91"><defs><style>.cls-1{fill:none;}.cls-2{clip-path:url(#clip-path);}.cls-3{fill:#e2231a;}.cls-4{fill:#fff;}.cls-5{fill:#dfa849;}.cls-6{fill:url(#Polished_Brass);}.cls-7{fill:url(#Polished_Brass-2);}.cls-8{fill:#2e2925;}</style><clipPath id="clip-path"><path class="cls-1" d="M110.17,31.2l.62,18.47a4.79,4.79,0,0,0,2.2,3.87l8.76,5.62,8.76-5.62a4.79,4.79,0,0,0,2.2-3.87l.62-18.47a22.56,22.56,0,0,0-23.15,0"/></clipPath><linearGradient id="Polished_Brass" x1="-43.19" y1="-1109.1" x2="77.39" y2="-1113.48" gradientTransform="translate(103.19 1143.72)" gradientUnits="userSpaceOnUse"><stop offset="0.01" stop-color="#efc981"/><stop offset="0.19" stop-color="#f2d78f"/><stop offset="0.41" stop-color="#f8f0e4"/><stop offset="0.73" stop-color="#c58511"/><stop offset="0.9" stop-color="#e5b76d"/><stop offset="0.95" stop-color="#eec687"/></linearGradient><linearGradient id="Polished_Brass-2" x1="-43.19" y1="-1109.12" x2="77.39" y2="-1113.5" xlink:href="#Polished_Brass"/></defs><title>Obolon_ukr верт. біла_на зел</title><g class="cls-2"><rect class="cls-3" x="110.17" y="28.01" width="23.15" height="31.16"/></g><path class="cls-4" d="M131.06,43.31c1.26-2.45.11-6-1.93-8.26s-5.61-4.28-8.82-3.22a4.35,4.35,0,0,1,2.78,1.78,8.82,8.82,0,0,1,1.51,4.13c.09.76.16,1.56.32,2.4a9.68,9.68,0,0,0,.91,2.59,4.48,4.48,0,0,0,2.85,1.74,2.6,2.6,0,0,0,2.38-1.16m-.76-.46a1.74,1.74,0,0,1-1.4.74h-.11a3.09,3.09,0,0,1-1.51-.67,2.67,2.67,0,0,0,1,.31s.07,0,.11,0a1.67,1.67,0,0,0,1.34-.71c1-2-.07-5-1.74-6.76a10.9,10.9,0,0,0-4.11-2.66l0,0a5.4,5.4,0,0,0-.41-.51,10.74,10.74,0,0,1,5.07,3.06c1.73,1.88,2.87,5.07,1.82,7.19"/><path class="cls-4" d="M112.51,38.09c-.89,2.84-1,7,1.48,9.29a4.34,4.34,0,0,1,.19-3.3,8.89,8.89,0,0,1,2.87-3.33c.62-.45,1.29-.89,1.94-1.44a9.27,9.27,0,0,0,1.83-2.06,4.55,4.55,0,0,0,.14-3.34,2.62,2.62,0,0,0-2.17-1.52c-2.76.08-5.34,2.84-6.28,5.69m7.4-4,.06.1a3.11,3.11,0,0,1,.15,1.62,2.83,2.83,0,0,0-.19-1l-.05-.09a1.63,1.63,0,0,0-1.27-.82c-2.24.1-4.3,2.54-5,4.85a11.08,11.08,0,0,0-.28,4.9s0,0,0,0a4.39,4.39,0,0,0-.24.6,10.59,10.59,0,0,1,.15-5.93c.78-2.43,3-5,5.34-5.14a1.74,1.74,0,0,1,1.34.85"/><path class="cls-4" d="M123.52,45.89c-.72-.28-1.46-.6-2.26-.85a9.09,9.09,0,0,0-2.72-.43,4.56,4.56,0,0,0-2.88,1.68,2.63,2.63,0,0,0-.1,2.65c1.56,2.27,5.28,3,8.18,2.2s6.43-2.92,7-6.26a4.31,4.31,0,0,1-2.88,1.61,8.83,8.83,0,0,1-4.35-.61M128,47.54a5.68,5.68,0,0,0,.64-.1,10.82,10.82,0,0,1-5.13,3c-2.49.61-5.83.06-7.18-1.89a1.71,1.71,0,0,1,0-1.58l.06-.1a3.21,3.21,0,0,1,1.33-1,2.76,2.76,0,0,0-.75.69.44.44,0,0,1-.06.09,1.71,1.71,0,0,0,0,1.52c1.26,1.85,4.41,2.33,6.76,1.73A10.88,10.88,0,0,0,128,47.54Z"/><path class="cls-5" d="M111.85,24.38a20.77,20.77,0,0,1,9.91-2.17,20.79,20.79,0,0,1,9.91,2.17,25.21,25.21,0,0,1,3.53-4.22c-1.08-.69-4.94-3-4.94-3-.54-.3-.7-.25-1,.27-.62,1.8-1.41,2.36-2.81,1.84-1-.36-1.46-1.12-.67-2.68a1.82,1.82,0,0,0-.33-2.3L121.76,12h0l-3.7,2.25a1.8,1.8,0,0,0-.33,2.3c.79,1.56.3,2.33-.67,2.68-1.41.51-2.19,0-2.81-1.84-.29-.52-.45-.57-1-.27,0,0-3.86,2.32-4.94,3a24.84,24.84,0,0,1,3.53,4.22m18.45-4.06c.87-1.46,2.74-.41,1.78,1.16l-.48.71s-1.15-.55-1.88-.84c.09-.17.23-.39.59-1m-10-2.4a1.51,1.51,0,1,1,3,0c0,.07,0,.46,0,.59l-.07,1.43s-.55-.05-1.43-.06h0c-.88,0-1.43.06-1.43.06l-.07-1.43c0-.15,0-.54,0-.59m-7,2.39c.36.66.49.87.58,1-.74.3-1.93.85-1.93.85l-.48-.71c-1-1.58,1-2.64,1.83-1.18"/><path class="cls-5" d="M126.32,23.72c-.21-.05-.43-.07-.65-.11l-1.31-.18a25,25,0,0,0-2.63-.09,22.8,22.8,0,0,0-5.21.69A18,18,0,0,0,111.67,26c1.69-.38,3.36-.69,5-.9a42.71,42.71,0,0,1,5-.38l.63,0c.21,0,.42,0,.63,0l1.26,0c.84.07,1.68.08,2.51.2,1.69.14,3.34.51,5.06.81A18,18,0,0,0,127,23.87Z"/><path class="cls-5" d="M117.3,71.77a2,2,0,0,0,.75.44c-.55-1,.17-2.84.31-3.19a4.49,4.49,0,0,0-1.39-1.3,4.46,4.46,0,0,1-.1,1.35,4.16,4.16,0,0,0,0,1.94,1.81,1.81,0,0,0,.29.56h-5.33a2.76,2.76,0,0,1-2.35-1.4,2.88,2.88,0,0,0-2.8-1.44,6,6,0,0,1-2.43-.37l-.09,0a5.19,5.19,0,0,1,1.53,1.5,7.68,7.68,0,0,0,1.15,1.28,1.93,1.93,0,0,0,1.87.09l.06.1a3.11,3.11,0,0,1-.63.38h.12l-.35.08-.15,0h-.09c-1.09.15-2-.86-2.57-1.53-.14-.16-.26-.3-.36-.39-1.29-1.2-1.76-1.2-2.62-1.19a8.48,8.48,0,0,1-2.62-.34A6,6,0,0,1,101,69.81a6.07,6.07,0,0,0,1.31,1.28,2.11,2.11,0,0,0,2,.08l.09-.07v.15l0,0-.14.11a1.66,1.66,0,0,1-.68.39l-.07,0c-.44.1-1.46.33-3.53-1.89a3.37,3.37,0,0,0-3-1.24,8.93,8.93,0,0,1-2.45-.27A5.47,5.47,0,0,1,96.34,70a3.77,3.77,0,0,0,1.37,1.22,2.46,2.46,0,0,0,2.14-.05l.06.1a3.31,3.31,0,0,1-1.05.52c-1.41.29-2.21-.51-3-1.29a9.12,9.12,0,0,0-.77-.72,4.56,4.56,0,0,0-4-1.09h0c-.27,0-.68,0-1.16,0H88.59c-.1,0,.12,0-.57.08l-.89.05.81,0c.2,0-.08,0,.13,0a7.75,7.75,0,0,1,1.33,0,4.51,4.51,0,0,1,2.33,1.49,6.38,6.38,0,0,0,.86.75,2.26,2.26,0,0,0,2.17.09l.09-.07v.15l0,0a2.87,2.87,0,0,1-.76.43h0a1.37,1.37,0,0,1-.52.08h-.05a3,3,0,0,1-2.18-1,1.92,1.92,0,0,0-.71-.49c-.59-.16-1.12.18-1.74.57a3.82,3.82,0,0,1-2,.79c-1.31,0-.9.08-1,.12l0,0h1.34a3.8,3.8,0,0,1,2,.85c1.06.7,2.15,1.42,3.71.46a4.4,4.4,0,0,0,.64-.52,2.65,2.65,0,0,1,2.62-.89,2.86,2.86,0,0,1,1,.45l-.05.11a2.61,2.61,0,0,0-2.25.09,10.86,10.86,0,0,0-1.23.84A6.15,6.15,0,0,1,91,74.65a18.13,18.13,0,0,1-2,.07h-.18c-1.78,0-3.26,0-3.59.05v0l4.16,0h1.68c.49,0,.94.06,1.38.09,2,.16,3.5.28,5-1.22.19-.19.36-.38.53-.56a3.39,3.39,0,0,1,2.86-1.46,2.34,2.34,0,0,1,1.38.5l0,0v0l.08.21-.15-.1a2.42,2.42,0,0,0-2-.09,3.38,3.38,0,0,0-1.41,1.2,8.17,8.17,0,0,1-1.78,1.72,5.13,5.13,0,0,1,2-.27,3.94,3.94,0,0,0,3.18-1.18c.27-.24.5-.48.73-.72a3,3,0,0,1,2.23-1.29,2.53,2.53,0,0,1,1.32.49l0,0v.14l-.09-.06a1.93,1.93,0,0,0-2.06.2,4.73,4.73,0,0,0-.87.91,8.63,8.63,0,0,1-1.87,1.81,5.34,5.34,0,0,1,1.85-.28,4,4,0,0,0,3.31-1.39l.12-.13c1-1.05,1.54-1.58,2.47-1.71a2,2,0,0,1,1.45.49l0,0v0l0,.07,0,0a1.34,1.34,0,0,0-.76-.24,2.37,2.37,0,0,0-1,.27,6.38,6.38,0,0,0-1.48,1.48,6.24,6.24,0,0,1-1.49,1.48,8.65,8.65,0,0,1,2.65-.38,1.86,1.86,0,0,0,1.08-.21,4.59,4.59,0,0,0,1.28-1.29c.54-.71,1.06-1.39,1.9-1.39h4.45Z"/><path class="cls-5" d="M158.74,74.78c-.32,0-2.52,0-4.27-.05h-.18a17.46,17.46,0,0,1-1.92-.07,6,6,0,0,1-2.69-1.39,10.66,10.66,0,0,0-1.21-.84,2.53,2.53,0,0,0-2.21-.09l-.05-.11a2.78,2.78,0,0,1,1-.45,2.58,2.58,0,0,1,2.57.89,4.36,4.36,0,0,0,.62.52c1.53,1,2.61.24,3.65-.46a3.7,3.7,0,0,1,2-.85h1.54l0,0c-.07,0,.11-.12-1.18-.12a3.71,3.71,0,0,1-2-.79c-.6-.39-1.12-.73-1.71-.57a1.89,1.89,0,0,0-.69.49,2.88,2.88,0,0,1-2.15,1h-.05a1.33,1.33,0,0,1-.52-.08h0a2.8,2.8,0,0,1-.74-.43l0,0v-.15l.09.07a2.19,2.19,0,0,0,2.14-.09,6.32,6.32,0,0,0,.84-.75,4.42,4.42,0,0,1,2.29-1.49,7.52,7.52,0,0,1,1.31,0c.21,0-.07,0,.12,0l.79,0-.87-.05c-.68,0-.45-.06-.55-.08h-1.32c-.47,0-.87,0-1.14,0h0a4.43,4.43,0,0,0-4,1.09,9,9,0,0,0-.76.72c-.76.78-1.55,1.58-2.94,1.29a3.23,3.23,0,0,1-1-.52l.06-.1a2.38,2.38,0,0,0,2.11.05A3.73,3.73,0,0,0,147.08,70a5.41,5.41,0,0,1,1.81-1.63,8.64,8.64,0,0,1-2.41.27,3.29,3.29,0,0,0-3,1.24c-2,2.23-3,2-3.47,1.89H140a1.63,1.63,0,0,1-.67-.39l-.14-.11,0,0V71.1l.09.07a2,2,0,0,0,2-.08,6,6,0,0,0,1.29-1.28A5.91,5.91,0,0,1,144,68.37a8.2,8.2,0,0,1-2.58.34c-.84,0-1.3,0-2.57,1.19-.1.09-.22.23-.36.39-.58.67-1.45,1.68-2.53,1.53h-.09l-.15,0-.34-.08h.12a3.05,3.05,0,0,1-.62-.38l.06-.1a1.87,1.87,0,0,0,1.84-.09,7.64,7.64,0,0,0,1.13-1.28,5.14,5.14,0,0,1,1.5-1.5l-.09,0a5.79,5.79,0,0,1-2.39.37,2.82,2.82,0,0,0-2.75,1.44,2.71,2.71,0,0,1-2.31,1.4h-5.42V72h4.38c.83,0,1.34.67,1.87,1.39A4.55,4.55,0,0,0,134,74.7a1.8,1.8,0,0,0,1.06.21,8.36,8.36,0,0,1,2.6.38,6.19,6.19,0,0,1-1.47-1.48,6.33,6.33,0,0,0-1.46-1.48,2.3,2.3,0,0,0-1-.27,1.3,1.3,0,0,0-.75.24l0,0,0-.07v0l0,0a1.92,1.92,0,0,1,1.42-.49c.91.12,1.42.65,2.43,1.71l.12.13a3.9,3.9,0,0,0,3.26,1.39,5.17,5.17,0,0,1,1.81.28,8.54,8.54,0,0,1-1.84-1.81,4.7,4.7,0,0,0-.85-.91,1.87,1.87,0,0,0-2-.2l-.09.06v-.14l0,0a2.46,2.46,0,0,1,1.29-.49,3,3,0,0,1,2.2,1.29c.22.24.45.49.72.72a3.83,3.83,0,0,0,3.12,1.18,5,5,0,0,1,2,.27,8.09,8.09,0,0,1-1.75-1.72,3.34,3.34,0,0,0-1.39-1.2,2.34,2.34,0,0,0-2,.09l-.15.1.08-.21v0l0,0a2.28,2.28,0,0,1,1.36-.5,3.32,3.32,0,0,1,2.81,1.46c.16.18.33.37.52.56,1.48,1.49,2.92,1.38,4.92,1.22.43,0,.88-.07,1.36-.09h1.65l4.83,0Z"/><path class="cls-5" d="M119,68.36a6.31,6.31,0,0,1-.24,1.19,9,9,0,0,0-.34,1.79,2.17,2.17,0,0,0,.9,1.68,7.56,7.56,0,0,1,1.5-1.65A3.91,3.91,0,0,0,119,68.36Z"/><path class="cls-5" d="M123.92,74a6.41,6.41,0,0,0-.6-.95,7.83,7.83,0,0,0-.76-.76,7.57,7.57,0,0,1-.8-.79,7.58,7.58,0,0,1-.8.79,7.89,7.89,0,0,0-.76.76,6.4,6.4,0,0,0-.6.95,7.69,7.69,0,0,1,1,1.24l.27.38a1,1,0,0,0,1.87,0l.27-.38A7.69,7.69,0,0,1,123.92,74Z"/><path class="cls-5" d="M124.16,73a2.17,2.17,0,0,0,.9-1.68,9,9,0,0,0-.34-1.79,6.31,6.31,0,0,1-.24-1.19,3.92,3.92,0,0,0-1.81,3A7.55,7.55,0,0,1,124.16,73Z"/><path class="cls-5" d="M121.63,70.71l.11.26,0,0,0,0,.11-.26a11,11,0,0,1,.73-1.5A3.8,3.8,0,0,1,123.81,68h0a9.14,9.14,0,0,0-.63-1,15.76,15.76,0,0,0-1.42-1.59A15.73,15.73,0,0,0,120.34,67a9.14,9.14,0,0,0-.63,1h0a3.8,3.8,0,0,1,1.19,1.18A11,11,0,0,1,121.63,70.71Z"/><path class="cls-5" d="M126.7,71a4.16,4.16,0,0,0,0-1.94,4.47,4.47,0,0,1-.1-1.35,4.5,4.5,0,0,0-1.39,1.3c.14.34.85,2.22.31,3.19A1.83,1.83,0,0,0,126.7,71Z"/><path class="cls-5" d="M118.87,74.12l-.07-.06.29-.66a5.92,5.92,0,0,0-3.34-1.12,4.06,4.06,0,0,1,.39.7,5.57,5.57,0,0,0,1.16,1.71,4.76,4.76,0,0,0,2.93,1.3l-.08-.14A5.87,5.87,0,0,0,118.87,74.12Z"/><path class="cls-5" d="M118.44,68.26a1,1,0,0,1,.72-.7.55.55,0,0,0,.15-.07,5,5,0,0,1,.93-1.49,3.84,3.84,0,0,0-1.08-1.48,5.13,5.13,0,0,1-.54,1.17,7.55,7.55,0,0,0-.52,1A1.87,1.87,0,0,0,118.44,68.26Z"/><path class="cls-5" d="M124.21,67.49a.55.55,0,0,0,.15.07,1,1,0,0,1,.72.7,1.87,1.87,0,0,0,.34-1.53,7.54,7.54,0,0,0-.52-1,5.14,5.14,0,0,1-.54-1.17A3.84,3.84,0,0,0,123.28,66,5,5,0,0,1,124.21,67.49Z"/><path class="cls-5" d="M124.72,74.06l-.07.06a5.87,5.87,0,0,0-1.29,1.74l-.08.14a4.75,4.75,0,0,0,2.93-1.3A5.57,5.57,0,0,0,127.37,73a4.08,4.08,0,0,1,.39-.7,5.93,5.93,0,0,0-3.34,1.12Z"/><path class="cls-5" d="M121.36,64.79h0l.4-.36.4.36c.16.14.4.39.65.66a3.7,3.7,0,0,1,.57-.87l-.2-.3a15.72,15.72,0,0,0-1.42-1.59,15.75,15.75,0,0,0-1.42,1.59l-.2.3a3.69,3.69,0,0,1,.57.87C121,65.18,121.2,64.93,121.36,64.79Z"/><path class="cls-5" d="M108.73,64.66a6.66,6.66,0,0,1,.7,1.06,9.46,9.46,0,0,0,1.08,1.59,2.29,2.29,0,0,0,1.92.58,8,8,0,0,1-.11-2.34A4.12,4.12,0,0,0,108.73,64.66Z"/><path class="cls-5" d="M115,64.82a7.85,7.85,0,0,0-1.07,0,7.56,7.56,0,0,1-1.12,0,7.55,7.55,0,0,1,0,1.12,7.9,7.9,0,0,0,0,1.07,6.4,6.4,0,0,0,.24,1.1,13.78,13.78,0,0,0,2.37.09,1,1,0,0,0,1-1.12h0c0-.13-.05-.29-.08-.46a7.68,7.68,0,0,1-.2-1.55A6.39,6.39,0,0,0,115,64.82Z"/><path class="cls-5" d="M113.51,61.39a6.3,6.3,0,0,1-1-.67,3.92,3.92,0,0,0,.85,3.41,7.55,7.55,0,0,1,2.22.1,2.17,2.17,0,0,0-.55-1.82A9,9,0,0,0,113.51,61.39Z"/><path class="cls-5" d="M111.79,60.94a9.12,9.12,0,0,0-1.18-.29,15.74,15.74,0,0,0-2.13-.12,15.73,15.73,0,0,0,.12,2.13,9.12,9.12,0,0,0,.29,1.18h0a3.8,3.8,0,0,1,1.68,0,10.92,10.92,0,0,1,1.58.54l.26.11,0,0,0,0-.11-.26a11,11,0,0,1-.54-1.58,3.8,3.8,0,0,1,0-1.68Z"/><path class="cls-5" d="M106.42,65.57a4.47,4.47,0,0,1,.88,1A4.16,4.16,0,0,0,108.65,68a1.83,1.83,0,0,0,1.72,0c-1.07-.3-1.89-2.13-2-2.47A4.5,4.5,0,0,0,106.42,65.57Z"/><path class="cls-5" d="M115.94,62.74a1.83,1.83,0,0,0,0-1.72,4.16,4.16,0,0,0-1.39-1.35,4.46,4.46,0,0,1-1-.88,4.49,4.49,0,0,0-.06,1.91C113.81,60.85,115.64,61.67,115.94,62.74Z"/><path class="cls-5" d="M106.85,64.08a1.87,1.87,0,0,0,1.32.84,1,1,0,0,1,0-1,.56.56,0,0,0,.06-.16,5,5,0,0,1-.4-1.71,3.83,3.83,0,0,0-1.81-.29,5.14,5.14,0,0,1,.45,1.21A7.57,7.57,0,0,0,106.85,64.08Z"/><path class="cls-5" d="M111.7,60.29a.55.55,0,0,0,.16-.06,1,1,0,0,1,1,0A1.87,1.87,0,0,0,112,58.9a7.52,7.52,0,0,0-1.11-.38,5.12,5.12,0,0,1-1.21-.45,3.84,3.84,0,0,0,.29,1.81A5,5,0,0,1,111.7,60.29Z"/><path class="cls-5" d="M116.71,64.58v.09a5.87,5.87,0,0,0,.32,2.14l0,.15a4.76,4.76,0,0,0,1.15-3,5.57,5.57,0,0,0-.39-2,4.1,4.1,0,0,1-.22-.77A5.93,5.93,0,0,0,116,64.32Z"/><path class="cls-5" d="M106.76,61.11a3.7,3.7,0,0,1,1,.21c0-.38,0-.72,0-.93l0-.54.54,0c.21,0,.55,0,.93,0a3.68,3.68,0,0,1-.21-1l-.35-.07a15.65,15.65,0,0,0-2.13-.12,15.69,15.69,0,0,0,.12,2.13C106.71,60.87,106.73,61,106.76,61.11Z"/><path class="cls-5" d="M112.25,70.51h1.57a2.77,2.77,0,0,0,2.54-1.66l-3.27,0H109.6l.62.75A2.64,2.64,0,0,0,112.25,70.51Z"/><path class="cls-5" d="M133.2,67.31a9.46,9.46,0,0,0,1.08-1.59,6.64,6.64,0,0,1,.7-1.06,4.12,4.12,0,0,0-3.59.89,8,8,0,0,1-.11,2.34A2.29,2.29,0,0,0,133.2,67.31Z"/><path class="cls-5" d="M127.35,67.08h0a1,1,0,0,0,1,1.12,13.79,13.79,0,0,0,2.37-.09,6.42,6.42,0,0,0,.24-1.1,7.9,7.9,0,0,0,0-1.07,7.55,7.55,0,0,1,0-1.12,7.56,7.56,0,0,1-1.12,0,7.86,7.86,0,0,0-1.07,0,6.38,6.38,0,0,0-1.1.24,7.67,7.67,0,0,1-.2,1.55C127.41,66.79,127.38,67,127.35,67.08Z"/><path class="cls-5" d="M130.19,61.39a9,9,0,0,0-1.51,1,2.17,2.17,0,0,0-.55,1.82,7.55,7.55,0,0,1,2.22-.1,3.92,3.92,0,0,0,.85-3.41A6.3,6.3,0,0,1,130.19,61.39Z"/><path class="cls-5" d="M131.37,64.21l-.11.26,0,0,0,0,.26-.11a11,11,0,0,1,1.58-.54,3.8,3.8,0,0,1,1.68,0h0a9.13,9.13,0,0,0,.29-1.18,15.66,15.66,0,0,0,.12-2.13,15.74,15.74,0,0,0-2.13.12,9.14,9.14,0,0,0-1.18.29h0a3.8,3.8,0,0,1,0,1.68A10.93,10.93,0,0,1,131.37,64.21Z"/><path class="cls-5" d="M135.05,68a4.17,4.17,0,0,0,1.35-1.39,4.45,4.45,0,0,1,.88-1,4.5,4.5,0,0,0-1.91-.06c-.14.34-1,2.17-2,2.47A1.83,1.83,0,0,0,135.05,68Z"/><path class="cls-5" d="M130.24,60.7a4.5,4.5,0,0,0-.06-1.91,4.47,4.47,0,0,1-1,.88A4.16,4.16,0,0,0,127.76,61a1.84,1.84,0,0,0,0,1.72C128.06,61.67,129.9,60.85,130.24,60.7Z"/><path class="cls-5" d="M135.47,63.76a.55.55,0,0,0,.06.16,1,1,0,0,1,0,1,1.87,1.87,0,0,0,1.32-.84,7.58,7.58,0,0,0,.38-1.11,5.15,5.15,0,0,1,.45-1.21,3.84,3.84,0,0,0-1.81.29A5,5,0,0,1,135.47,63.76Z"/><path class="cls-5" d="M131.85,60.24a.55.55,0,0,0,.16.06,5,5,0,0,1,1.71-.4,3.84,3.84,0,0,0,.29-1.81,5.13,5.13,0,0,1-1.21.45,7.49,7.49,0,0,0-1.11.38,1.87,1.87,0,0,0-.84,1.32A1,1,0,0,1,131.85,60.24Z"/><path class="cls-5" d="M126.69,66.81a5.87,5.87,0,0,0,.32-2.14v-.09l.67-.26a5.93,5.93,0,0,0-1.57-3.15,4.08,4.08,0,0,1-.22.77,5.56,5.56,0,0,0-.39,2,4.76,4.76,0,0,0,1.15,3Z"/><path class="cls-5" d="M135.36,59.83l.54,0,0,.54c0,.21,0,.55,0,.93a3.7,3.7,0,0,1,1-.21c0-.13.05-.24.07-.35a15.65,15.65,0,0,0,.12-2.13,15.65,15.65,0,0,0-2.13.12l-.35.07a3.69,3.69,0,0,1-.21,1C134.81,59.82,135.15,59.82,135.36,59.83Z"/><path class="cls-5" d="M129.88,70.51h1.57a2.64,2.64,0,0,0,2-1l.62-.75h-3.49l-3.27,0A2.77,2.77,0,0,0,129.88,70.51Z"/><path class="cls-5" d="M107.18,41.27,107.05,38q-.06-1.63-.15-3.26h-.1a17,17,0,0,0-.52,3.29,27.61,27.61,0,0,0-.06,3.27,28,28,0,0,0,.3,3.26,17.2,17.2,0,0,0,.76,3.24h.1q0-1.63-.09-3.27Z"/><path class="cls-5" d="M136.78,34.74h-.1q-.09,1.63-.15,3.27l-.13,3.27-.1,3.27q-.06,1.63-.09,3.27h.1a17,17,0,0,0,.76-3.24,27.67,27.67,0,0,0,.3-3.26A28,28,0,0,0,137.3,38a17.19,17.19,0,0,0-.52-3.29"/><path class="cls-5" d="M164.08,29.33c-1.3-1.34-3.2-2.36-4.51-1.64-.45.25-1.87,3.8-2.45,5-.38.78-.92,2-1.48,3.12a39.86,39.86,0,0,1-1.86,3.81s-1.29-2.42-1.84-3.31v0c-.68,1.76-3.55,3.52-4.58,3.49.09-1.13.18-1.43.28-2.27a7.73,7.73,0,0,1-4.75.73,5.79,5.79,0,0,1,.77-.68l-.13-.1.06,0-.06,0h0c-.25-.2-.58-.49-.83-.71a4.4,4.4,0,0,1-1.4,1.44,7.14,7.14,0,0,0,1-1.75l-.13-.25-3.59-7.35c-1.75-3.27-3.52-3.58-6.25-2.67a2.47,2.47,0,0,0-.71,1.54,25.58,25.58,0,0,0-19.8,0,2.45,2.45,0,0,0-.71-1.55c-2.73-.92-4.5-.61-6.25,2.67l-3.59,7.35-.13.25a7.14,7.14,0,0,0,1,1.75,4.4,4.4,0,0,1-1.4-1.44c-.25.22-.58.51-.83.71h0l-.06,0,.06,0-.13.1a5.77,5.77,0,0,1,.77.68,7.73,7.73,0,0,1-4.75-.73c.1.84.19,1.14.28,2.27-1,0-3.9-1.73-4.58-3.49v0c-.56.89-1.84,3.31-1.84,3.31a39.79,39.79,0,0,1-1.86-3.81c-.56-1.11-1.1-2.34-1.48-3.12-.59-1.24-2-4.79-2.45-5-1.31-.72-3.21.3-4.51,1.64A71.13,71.13,0,0,1,64,41.75a7.37,7.37,0,0,0,1.35.27c.47-.22.94-.44,1.4-.67s1.21-.6,1.8-.94c1.19-.63,2.35-1.34,3.49-2.06s2.25-1.51,3.33-2.33a35.44,35.44,0,0,0,3.11-2.63,35.51,35.51,0,0,1-3,2.81Q74,37.52,72.31,38.72c-1.11.79-2.24,1.57-3.41,2.28-.58.37-1.18.7-1.77,1l-.05,0a12.7,12.7,0,0,0,6.23-1.88c3.29-2.23,5.94-4.12,7.47-6-.42,2-4.93,5.69-7.4,7.8l.16,0a6.71,6.71,0,0,0,.87.06l.76-.45c.37-.24.75-.47,1.12-.73s.73-.51,1.08-.79.7-.56,1-.84a21.21,21.21,0,0,0,1.91-1.87,12.87,12.87,0,0,0,1.59-2.16,13,13,0,0,1-1.48,2.25,21.43,21.43,0,0,1-1.83,2c-.33.31-.66.62-1,.91s-.7.58-1.05.86-.67.49-1,.74a10.38,10.38,0,0,0,5.1-2.72,7.5,7.5,0,0,0,1.5-1.69c-.05,1.7-2.61,3.72-3.84,5.25h0a4.67,4.67,0,0,0,.75.19l.67-.46c.22-.17.44-.33.66-.5a15.59,15.59,0,0,0,1.23-1.1,13.11,13.11,0,0,0,1.1-1.25,8,8,0,0,0,.88-1.41,8.05,8.05,0,0,1-.77,1.49,13.36,13.36,0,0,1-1,1.35,15.84,15.84,0,0,1-1.16,1.23c-.2.2-.42.38-.63.57l-.2.16A5.11,5.11,0,0,0,83,42a6.06,6.06,0,0,0,1.57-1.8c.08,1.09-1.37,3.37-2,4.68h0c1,.54,1.93,0,2.76-.71a4.67,4.67,0,0,0,1.28-1.72,11.25,11.25,0,0,1-1.35,4.17,34.25,34.25,0,0,1,3.41,3,8.57,8.57,0,0,0,.44-5.42c-.36-2.36-3.24-6-4.09-7.58-2.29-3.73-1.65-5.25-1.65-5.25a58.41,58.41,0,0,0,4.68,8.21c2.87,4.52,3.05,8.09,1,11.85-1.81-1.66-2.6-2.4-3.48-3.23-.65,1.12-2.6.35-5.19,6.28-1,2.3-2.66,5.63-5.35,6.86-3.26,1.47-5.28-2.52-2.76-4.62,3.35-2.81,7.14-4.29,6.33-8.16a4.59,4.59,0,0,0-1.83-2.73,6.89,6.89,0,0,0-3.47-1.1,4.19,4.19,0,0,0-3.2,1.09c-2,1.81,1,5.43-1.1,7.13,2.77-.84,2.45-5.29,2.45-5.29a4.38,4.38,0,0,1,.15,3.13c1-.76,1.16-2.36,1-3.89a4,4,0,0,1,.34,2.4,4,4,0,0,0,.7-3.41,4.34,4.34,0,0,1,2.28.86,3.5,3.5,0,0,1,1,4.06c-.91,1.82-3.73,3.16-5.83,4.69a4.51,4.51,0,0,0,2.11,8.05c3.36.57,6.07-1.88,7.85-4.2.47-.61.75-1,1.12-1.49v0a17.13,17.13,0,0,0,1.7-2.79s-.49,1.35-1.31,3.22l0,.06A6.37,6.37,0,0,1,78.86,65s-2,4.18-1.7,4.84,1.45,3.13,1.45,3.13h2.87a1.4,1.4,0,0,0,.2-1.53s1,.81,1.07,1.53h.47a1.4,1.4,0,0,0,.21-1.53s.92.67.75,1.53h.58a8.77,8.77,0,0,0,.13-1c.07-1.25-1.19-2.51-3.23-2.42l-.31.22a8.13,8.13,0,0,0-1.78.82,10.11,10.11,0,0,1,1.56-1.28,1.75,1.75,0,0,1,.15-1.27c.27-.67,2-1.08,3.61-1.34,1.89-.29,2.58-1.63,3.18-3.16.16-.39,2.73-7.68,5.39-9.88-.71,1.81-1.11,3.15-1.45,4.21a12.59,12.59,0,0,1,2.26.9,5.4,5.4,0,0,1,2.44-2.19A7.68,7.68,0,0,0,94.89,59l-.1.14-1.33,4.19,5.89,3.78h2.86a1.39,1.39,0,0,0,.21-1.53s1.05.82,1.07,1.53H104a1.4,1.4,0,0,0,.21-1.53s.92.68.75,1.53h.58a8.65,8.65,0,0,0,.13-1c.09-1.59-2-3.21-5.09-2l-.24.17a7.69,7.69,0,0,0-1.69.78,9.67,9.67,0,0,1,1.46-1.2,5.06,5.06,0,0,1-1.84-2l1.42-1.3s.61-.56.83-.72c1.67-1.68.45-3.68-.23-4.52a19.27,19.27,0,0,0-4.68-3.68l-2-1.18,2.42.92c.6-.34,1.27-.73,2-1.14a11.73,11.73,0,0,1-3.29-3.94l4.47,3.36s0-.05,0-.05l8.7,4.28,1.61-.92a7,7,0,0,0,2.33,2.47l10,6.39,10-6.39a7,7,0,0,0,2.42-2.65l2.67.08,7.51-3.25s0,0,0,.05l4.47-3.36a11.73,11.73,0,0,1-3.29,3.94c.7.41,1.37.81,2,1.14l2.42-.92-2,1.18a19.26,19.26,0,0,0-4.68,3.68c-.68.83-1.9,2.84-.23,4.52.21.16.83.72.83.72l1.42,1.3a5.06,5.06,0,0,1-1.84,2,9.69,9.69,0,0,1,1.46,1.2,7.69,7.69,0,0,0-1.69-.78l-.24-.17c-3.11-1.2-5.18.42-5.09,2a8.71,8.71,0,0,0,.13,1h.58c-.17-.85.75-1.53.75-1.53a1.4,1.4,0,0,0,.21,1.53H140c0-.71,1.07-1.53,1.07-1.53a1.39,1.39,0,0,0,.21,1.53h2.86L150,63.35l-1.33-4.19-.1-.14a7.68,7.68,0,0,0-1.83-2.55,5.4,5.4,0,0,1,2.44,2.19,12.59,12.59,0,0,1,2.26-.9c-.34-1.06-.74-2.4-1.45-4.21,2.66,2.2,5.23,9.49,5.39,9.88.6,1.53,1.29,2.87,3.18,3.16,1.61.26,3.34.68,3.61,1.34a1.75,1.75,0,0,1,.15,1.27,10.11,10.11,0,0,1,1.56,1.28,8.13,8.13,0,0,0-1.78-.82l-.31-.22c-2-.09-3.3,1.18-3.23,2.42a8.77,8.77,0,0,0,.13,1h.58c-.17-.86.75-1.53.75-1.53a1.4,1.4,0,0,0,.21,1.53h.47c0-.72,1.07-1.53,1.07-1.53a1.4,1.4,0,0,0,.2,1.53h2.87s1.12-2.4,1.45-3.13-1.7-4.84-1.7-4.84a6.37,6.37,0,0,1-3.78-6.57l0-.06c-.82-1.87-1.31-3.22-1.31-3.22a17.14,17.14,0,0,0,1.7,2.79v0c.37.5.66.89,1.12,1.49,1.79,2.32,4.5,4.76,7.85,4.2a4.51,4.51,0,0,0,2.11-8.05c-2.1-1.53-4.92-2.87-5.83-4.69a3.5,3.5,0,0,1,1-4.06,4.34,4.34,0,0,1,2.28-.86,4,4,0,0,0,.7,3.41,4,4,0,0,1,.34-2.4c-.16,1.53,0,3.14,1,3.89a4.38,4.38,0,0,1,.15-3.13s-.32,4.45,2.45,5.29c-2.1-1.7.88-5.32-1.1-7.13a4.19,4.19,0,0,0-3.2-1.09,6.89,6.89,0,0,0-3.47,1.1,4.59,4.59,0,0,0-1.83,2.73c-.8,3.87,3,5.35,6.33,8.16,2.52,2.11.5,6.1-2.76,4.62-2.69-1.22-4.34-4.55-5.35-6.86-2.6-5.93-4.55-5.16-5.19-6.28-.88.84-1.67,1.58-3.48,3.23-2-3.76-1.84-7.33,1-11.85a58.41,58.41,0,0,0,4.68-8.21s.64,1.52-1.65,5.25c-.85,1.56-3.73,5.22-4.09,7.58a8.57,8.57,0,0,0,.44,5.42,34.27,34.27,0,0,1,3.41-3,11.25,11.25,0,0,1-1.35-4.17,4.67,4.67,0,0,0,1.28,1.72c.83.74,1.79,1.25,2.76.71h0c-.58-1.3-2-3.59-2-4.68a6.06,6.06,0,0,0,1.57,1.8,5.11,5.11,0,0,0,3.12,1.05l-.2-.16c-.21-.19-.43-.37-.63-.57a15.84,15.84,0,0,1-1.16-1.23,13.36,13.36,0,0,1-1-1.35,8.05,8.05,0,0,1-.77-1.49,8,8,0,0,0,.88,1.41,13.11,13.11,0,0,0,1.1,1.25,15.58,15.58,0,0,0,1.23,1.1c.21.18.44.34.66.5l.67.46a4.66,4.66,0,0,0,.75-.19h0c-1.23-1.53-3.79-3.55-3.84-5.25a7.49,7.49,0,0,0,1.5,1.69,10.38,10.38,0,0,0,5.1,2.72c-.34-.25-.68-.48-1-.74s-.71-.56-1.05-.86-.68-.6-1-.91a21.46,21.46,0,0,1-1.83-2,13,13,0,0,1-1.48-2.25,12.87,12.87,0,0,0,1.59,2.16,21.22,21.22,0,0,0,1.91,1.87c.34.29.68.58,1,.84s.72.53,1.08.79.75.49,1.12.73l.76.45a6.72,6.72,0,0,0,.87-.06l.16,0c-2.47-2.11-7-5.84-7.4-7.8,1.53,1.89,4.18,3.79,7.47,6a12.7,12.7,0,0,0,6.23,1.88l-.05,0c-.59-.35-1.19-.68-1.77-1-1.17-.71-2.3-1.48-3.41-2.28S169,37.08,168,36.19a35.55,35.55,0,0,1-3-2.81A35.51,35.51,0,0,0,168.1,36q1.62,1.23,3.33,2.33c1.14.72,2.3,1.43,3.49,2.06.59.33,1.2.63,1.8.94s.93.45,1.4.67a7.37,7.37,0,0,0,1.35-.27,71.13,71.13,0,0,1-15.39-12.42M93.57,43.38A4.85,4.85,0,0,1,92,40.51l-.37-2.19c1,2.67,7.19,9.06,7.19,9.06-2.56-1.82-4.2-3.14-5.21-4m7.37.81a3.53,3.53,0,0,1-.37,1.33,12.4,12.4,0,0,0,0-1.33c0-.43-.1-.86-.17-1.29s-.17-.86-.26-1.29l-.3-1.31a5.14,5.14,0,0,1,.66,1.2,6.87,6.87,0,0,1,.38,1.32,5.75,5.75,0,0,1,.07,1.38M106.43,50q-.5-.45-1-.94c-.31-.32-.6-.66-.88-1a9.41,9.41,0,0,1-.78-1.1,9.36,9.36,0,0,1,1.05.84c.33.3.65.61,1,.94s.6.66.88,1a9.49,9.49,0,0,1,.78,1.1,9.45,9.45,0,0,1-1.05-.84m1.75,0-.33-.32a59,59,0,0,1-4.59-4.84,16.74,16.74,0,0,1-.8,2.89,29.44,29.44,0,0,0,.23-3.76l0-.05a19.66,19.66,0,0,0-1.35-5.12,8.57,8.57,0,0,1,2.36,3.51c.86-1.35,2.08-6.43,3.12-10.77A1.62,1.62,0,0,1,108,30l-.11.1.64,19.09a2.86,2.86,0,0,0-.37.79m1.1-20.86a1.66,1.66,0,0,0-.71-.87,4.05,4.05,0,0,1,1.47.42l-.75.45m23.43,20.55a4.79,4.79,0,0,1-2.2,3.87l-8.76,5.62L113,53.54a4.79,4.79,0,0,1-2.2-3.87l-.62-18.47a22.56,22.56,0,0,1,23.15,0Zm2.19-21.41a1.66,1.66,0,0,0-.71.85l-.74-.44a4.08,4.08,0,0,1,1.45-.41m4.28,19.49a8.17,8.17,0,0,1-.58.75,8.29,8.29,0,0,1-.66.68,4.88,4.88,0,0,1-.76.59,4.9,4.9,0,0,1,.48-.84,8.33,8.33,0,0,1,.58-.75,8.25,8.25,0,0,1,.66-.68,4.85,4.85,0,0,1,.76-.59,4.82,4.82,0,0,1-.48.84m1.83,0a16.64,16.64,0,0,1-.79-2.87,59.1,59.1,0,0,1-4.34,4.77l-.33.33a3.1,3.1,0,0,0-.58-1.07l.63-18.76-.09-.07a1.6,1.6,0,0,1,1.17,1.48c1,4.34,2.26,9.42,3.12,10.77a8.57,8.57,0,0,1,2.36-3.51,19.66,19.66,0,0,0-1.35,5.12l0,.05a29.43,29.43,0,0,0,.23,3.76m2.34-6.09q-.15.65-.27,1.29c-.07.43-.13.86-.17,1.29a12.48,12.48,0,0,0,0,1.33,3.52,3.52,0,0,1-.37-1.33,5.76,5.76,0,0,1,.07-1.38A6.87,6.87,0,0,1,143,41.5a5.14,5.14,0,0,1,.66-1.2Zm8.18-1.11a4.85,4.85,0,0,1-1.62,2.87c-1,.86-2.65,2.18-5.21,4,0,0,6.19-6.39,7.19-9.06Z"/><path class="cls-5" d="M158.24,28a1.68,1.68,0,0,1,1.33-1.18,1.71,1.71,0,0,0-2.58.68c-.69,1.53-1,2.37-1.54,3.75a18.88,18.88,0,0,1-.22,3.85c2.17-5,2.58-6,3-7.1"/><path class="cls-5" d="M141.3,25.46l.64.66c0-.14,0-.33,0-.52v0c.08-.51,1.58-1,3-.2a1.65,1.65,0,0,0-.61-1.05s1.55.31,2.31,3c.68,2.4-.11,5.81-.94,7.68,0,0,4.48-5.56,2.49-9.39A5.46,5.46,0,0,0,147,24.11a4.56,4.56,0,0,1,4.4,4c0-3.79-2-5.66-3.54-6.32a8.73,8.73,0,0,1,6.57,4.64,9.59,9.59,0,0,0-1.71-2.94,10.69,10.69,0,0,0,.37-4.22,3.07,3.07,0,0,1-2.41,1.61,2.46,2.46,0,0,0,1.07-.78,10.37,10.37,0,0,0-.08-1,3.09,3.09,0,0,1-2.51,1.63,7.71,7.71,0,0,1-1,0,7.32,7.32,0,0,0-.75-.12,8.28,8.28,0,0,0-2.64.19,1.29,1.29,0,0,0-.65.5l-.16.18a1.18,1.18,0,0,1-.42.24l-.21.07h0a3.11,3.11,0,0,0,1,1.29,6,6,0,0,1-1.75-1.05h0l-1.08.36h0c-1.33.41-1.91,1.58-.14,3m3.19-3.31a8.25,8.25,0,0,1,2.35-.39c-.24.11-.81,1.08-1.26,1.28-.26.12-.85-.12-1.17-.87Z"/><path class="cls-5" d="M144.31,37.84A8.39,8.39,0,0,0,150,33.37a7.84,7.84,0,0,0,.72-2.14,6.12,6.12,0,0,0-1.71-6c1.22,2.28.64,4.82-.79,7.54a20.42,20.42,0,0,1-3.94,5"/><path class="cls-5" d="M151.83,34.16a13.76,13.76,0,0,0,.39-6.16,15.44,15.44,0,0,0-.54-2.21,13.56,13.56,0,0,1-.06,3.48A22.18,22.18,0,0,1,147.91,39s2.62-.61,3.93-4.86"/><path class="cls-5" d="M154.94,32a9.44,9.44,0,0,0-2.22-6.73,8.94,8.94,0,0,0-2.57-2.13c1.41,1.18,3.42,3.31,3,8.47a13.75,13.75,0,0,1-.87,3.87L154,38.25a30.19,30.19,0,0,0,.95-6.29"/><path class="cls-5" d="M85.25,28c.43,1.14.84,2.15,3,7.1A18.88,18.88,0,0,1,88,31.25c-.59-1.38-.85-2.21-1.54-3.75a1.71,1.71,0,0,0-2.58-.68A1.68,1.68,0,0,1,85.25,28"/><path class="cls-5" d="M95.65,21.83c-1.59.66-3.55,2.53-3.54,6.32a4.56,4.56,0,0,1,4.4-4,5.46,5.46,0,0,0-1.18,1.51c-2,3.83,2.49,9.39,2.49,9.39-.83-1.87-1.62-5.29-.94-7.68.76-2.65,2.31-3,2.31-3a1.65,1.65,0,0,0-.61,1.05c1.43-.8,2.93-.3,3,.2v0c0,.2,0,.38,0,.52l.64-.66c1.77-1.47,1.19-2.63-.14-3h0L100.93,22h0a6,6,0,0,1-1.75,1.05,3.11,3.11,0,0,0,1-1.29h0l-.21-.07a1.18,1.18,0,0,1-.42-.24l-.16-.18a1.29,1.29,0,0,0-.65-.5,8.28,8.28,0,0,0-2.64-.19,7.33,7.33,0,0,0-.75.12,7.71,7.71,0,0,1-1,0,3.09,3.09,0,0,1-2.51-1.63,10.37,10.37,0,0,0-.08,1,2.46,2.46,0,0,0,1.07.78,3.07,3.07,0,0,1-2.41-1.61,10.69,10.69,0,0,0,.37,4.22,9.59,9.59,0,0,0-1.71,2.94,8.73,8.73,0,0,1,6.57-4.64m3.35.32.09,0c-.32.75-.91,1-1.17.87-.44-.2-1-1.17-1.26-1.28a8.25,8.25,0,0,1,2.35.39"/><path class="cls-5" d="M95.24,32.8c-1.43-2.72-2-5.26-.79-7.54a6.12,6.12,0,0,0-1.71,6,7.84,7.84,0,0,0,.72,2.14,8.39,8.39,0,0,0,5.72,4.48,20.41,20.41,0,0,1-3.94-5"/><path class="cls-5" d="M91.26,28a13.76,13.76,0,0,0,.39,6.16C93,38.41,95.58,39,95.58,39a22.17,22.17,0,0,1-3.72-9.76,13.56,13.56,0,0,1-.06-3.48A15.4,15.4,0,0,0,91.26,28"/><path class="cls-5" d="M91.22,35.44a13.75,13.75,0,0,1-.87-3.87c-.44-5.16,1.57-7.29,3-8.47a8.94,8.94,0,0,0-2.57,2.13A9.44,9.44,0,0,0,88.54,32a30.19,30.19,0,0,0,.95,6.29Z"/><path class="cls-6" d="M174.52,30.74h.18a.71.71,0,0,1,.47.14,2.52,2.52,0,0,1,.47.68l.27.55h.84l-.39-.67-.24-.42a2.34,2.34,0,0,0-.22-.25,1.2,1.2,0,0,0-.25-.12,1.12,1.12,0,0,0,.67-.32.8.8,0,0,0,.23-.6.93.93,0,0,0-.13-.5.84.84,0,0,0-.3-.32,1.44,1.44,0,0,0-.53-.13h-1.73v3.35h.66Zm0-1.43h.28a3.54,3.54,0,0,1,.73,0,.43.43,0,0,1,.22.15.44.44,0,0,1,.09.25.48.48,0,0,1-.09.25.43.43,0,0,1-.22.16,3.08,3.08,0,0,1-.73,0h-.28Z"/><path class="cls-7" d="M173.7,33.14a3.15,3.15,0,0,0,1.56.42,3.18,3.18,0,0,0,1.58-.42A2.9,2.9,0,0,0,178,32a3.11,3.11,0,0,0,.42-1.57,3.08,3.08,0,0,0-.44-1.59,3,3,0,0,0-1.17-1.16,3.23,3.23,0,0,0-1.55-.41,3.29,3.29,0,0,0-1.55.41,2.94,2.94,0,0,0-1.16,1.16,3.11,3.11,0,0,0,0,3.15,2.82,2.82,0,0,0,1.16,1.15m-.67-4a2.47,2.47,0,0,1,1-1,2.59,2.59,0,0,1,2.56,0,2.37,2.37,0,0,1,1,1,2.66,2.66,0,0,1,.35,1.31,2.61,2.61,0,0,1-.35,1.29,2.3,2.3,0,0,1-1,.94,2.54,2.54,0,0,1-2.57,0,2.36,2.36,0,0,1-.95-.94,2.67,2.67,0,0,1-.35-1.29,2.73,2.73,0,0,1,.35-1.31"/><path class="cls-8" d="M70.05,93.83c.28-3.55-2-6-4.8-6H41.6c.73.34,1.9,1.33,1.9,3.89v24.81c0,3.3,2.26,6.87,5.93,6.87H64.75c3.24,0,7.81-2.92,7.81-9.42,0-4.78-2.45-8.84-6.94-11.41A23.1,23.1,0,0,0,55.34,99.8V95a9,9,0,0,0-1.11-4.15h.52a12,12,0,0,1,3.78.63c3.84,1.26,6,4.36,7.75,9.85.16-1.17,1.62-2.81,2.38-3.95A8.55,8.55,0,0,0,70.05,93.83Zm-7.34,18.74c0,4.2-1.41,8.46-4.12,8.46-2.24,0-3.25-2.28-3.25-3.89V102.31a7.74,7.74,0,0,1,5.51,3.56A11.66,11.66,0,0,1,62.71,112.57Z"/><path class="cls-8" d="M204.25,118.18V93.31a5.49,5.49,0,0,0-5.49-5.49h-7.31a5.81,5.81,0,0,1,2.22,4.43v7.22h-6.9V93.31a5.49,5.49,0,0,0-5.49-5.49H174a5.82,5.82,0,0,1,2.23,4.58v24.87a5.49,5.49,0,0,0,5.49,5.49H189a5.82,5.82,0,0,1-2.23-4.58V102.51h1a5.94,5.94,0,0,1,5.94,5.94v8.81a5.49,5.49,0,0,0,5.49,5.49h7.32A5.82,5.82,0,0,1,204.25,118.18Z"/><path class="cls-8" d="M230,101.94a23,23,0,0,0-10.24-2.77V93.31a5.49,5.49,0,0,0-5.49-5.49h-7.32a5.82,5.82,0,0,1,2.23,4.58v24.87a5.49,5.49,0,0,0,5.49,5.49h14.45c3.25,0,7.81-3,7.81-9.52C236.91,108.42,234.46,104.55,230,101.94Zm-7,18.45c-2,0-3-1.86-3.22-3.42V101.7a7.79,7.79,0,0,1,5.48,3.6,11.11,11.11,0,0,1,1.85,6.55C227.07,116.09,225.66,120.39,223,120.39Z"/><path class="cls-8" d="M117.74,87.79h-2.93a5.26,5.26,0,0,1,2.3,4.59A14.9,14.9,0,0,1,116,96.69l-9.49,22.69a2.74,2.74,0,0,0,2.69,3.7h3.33a2.94,2.94,0,0,1-1.27-3.66l8.19-19.6L124.3,117c.72,4.17,3.74,6.07,6.24,6.07h10.4a8.51,8.51,0,0,1-3.32-4.4c0-.12-.06-.24-.09-.37l-7.11-25.14a7,7,0,0,0-6.84-5.39Z"/><path class="cls-8" d="M105.88,87.81H90.48C81.83,87.81,75,95.21,75,106.19,75,117.54,83.09,124,90,124c10.81,0,16.34-8.59,16.34-18.39a22.53,22.53,0,0,0-1.74-8.35A26.82,26.82,0,0,1,103,92.86C102.44,89.86,104,88.42,105.88,87.81ZM98.18,118.6A4.39,4.39,0,0,1,94.92,120a5.22,5.22,0,0,1-1-.1c-4.92-1.78-7.56-8.27-7.56-13.46.08-5.35,2.12-12.24,6.46-15.16A8.51,8.51,0,0,0,92,96.2,16.66,16.66,0,0,0,95.2,104c1.37,2,4.37,5.23,4.58,8.86C99.93,115.3,99.7,117,98.18,118.6Z"/><path class="cls-8" d="M170.56,87.81H155.17c-8.66,0-15.46,7.39-15.46,18.38,0,11.35,8.07,17.78,15,17.78,10.81,0,16.34-8.59,16.34-18.39a22.53,22.53,0,0,0-1.74-8.35,26.82,26.82,0,0,1-1.58-4.38C167.12,89.86,168.72,88.42,170.56,87.81Zm-7.69,30.79a4.39,4.39,0,0,1-3.26,1.41,5.22,5.22,0,0,1-1-.1c-4.92-1.78-7.56-8.27-7.56-13.46.08-5.35,2.12-12.24,6.46-15.16a8.51,8.51,0,0,0-.8,4.91,16.66,16.66,0,0,0,3.22,7.82c1.37,2,4.37,5.23,4.58,8.86C164.61,115.3,164.38,117,162.87,118.6Z"/><path class="cls-8" d="M39.17,87.81H23.77c-8.66,0-15.46,7.39-15.46,18.38,0,11.35,8.07,17.78,15,17.78,10.81,0,16.34-8.59,16.34-18.39a22.53,22.53,0,0,0-1.74-8.35,26.82,26.82,0,0,1-1.58-4.38C35.73,89.86,37.32,88.42,39.17,87.81ZM31.47,118.6A4.39,4.39,0,0,1,28.21,120a5.22,5.22,0,0,1-1-.1c-4.92-1.78-7.56-8.27-7.56-13.46.08-5.35,2.12-12.24,6.46-15.16a8.51,8.51,0,0,0-.8,4.91A16.66,16.66,0,0,0,28.49,104c1.37,2,4.37,5.23,4.58,8.86C33.22,115.3,33,117,31.47,118.6Z"/><path class="cls-4" d="M66.28,101.33a21.65,21.65,0,0,1,1.11-3.94l.06-.16c.21-.61.41-1.17.56-1.69a6.35,6.35,0,0,0,.31-1.71c0-3.49-2-6-4.8-6H39.86c.73.34,1.9,1.33,1.9,3.89v24.81c0,3.3,2.26,6.87,5.93,6.87H63c3.24,0,7.81-2.92,7.81-9.42,0-4.78-2.45-8.84-6.94-11.41A23.1,23.1,0,0,0,53.6,99.8V95a9,9,0,0,0-1.11-4.15H53a12,12,0,0,1,3.78.63A14.87,14.87,0,0,1,66.28,101.33ZM61,112.57c0,4.2-1.41,8.46-4.12,8.46-2.24,0-3.25-2.28-3.25-3.89V102.31a7.74,7.74,0,0,1,5.51,3.56A11.66,11.66,0,0,1,61,112.57Z"/><path class="cls-4" d="M202.51,118.18V93.31A5.49,5.49,0,0,0,197,87.81h-7.31a5.81,5.81,0,0,1,2.22,4.43v7.22H185V93.31a5.49,5.49,0,0,0-5.49-5.49h-7.32a5.82,5.82,0,0,1,2.23,4.58v24.87a5.49,5.49,0,0,0,5.49,5.49h7.32a5.82,5.82,0,0,1-2.23-4.58V102.51h1a5.94,5.94,0,0,1,5.94,5.94v8.81a5.49,5.49,0,0,0,5.49,5.49h7.32A5.82,5.82,0,0,1,202.51,118.18Z"/><path class="cls-4" d="M228.25,101.94A23,23,0,0,0,218,99.17V93.31a5.49,5.49,0,0,0-5.49-5.49h-7.32a5.82,5.82,0,0,1,2.23,4.58v24.87a5.49,5.49,0,0,0,5.49,5.49h14.45c3.25,0,7.81-3,7.81-9.52C235.18,108.42,232.72,104.55,228.25,101.94Zm-7,18.45c-2,0-3-1.86-3.22-3.42V101.7a7.79,7.79,0,0,1,5.48,3.6,11.11,11.11,0,0,1,1.85,6.55C225.34,116.09,223.92,120.39,221.22,120.39Z"/><path class="cls-4" d="M116,87.79h-2.93a5.26,5.26,0,0,1,2.3,4.59,14.9,14.9,0,0,1-1.08,4.31l-9.49,22.69a2.74,2.74,0,0,0,2.69,3.7h3.33a2.94,2.94,0,0,1-1.27-3.66l8.19-19.6L122.56,117c.72,4.17,3.74,6.07,6.24,6.07h10.4a8.51,8.51,0,0,1-3.32-4.4c0-.12-.06-.24-.09-.37l-7.11-25.14a7,7,0,0,0-6.84-5.39Z"/><path class="cls-4" d="M104.14,87.81H88.75c-8.66,0-15.46,7.39-15.46,18.38,0,11.35,8.07,17.78,15,17.78,10.81,0,16.34-8.59,16.34-18.39a22.53,22.53,0,0,0-1.74-8.35,26.82,26.82,0,0,1-1.58-4.38C100.7,89.86,102.3,88.42,104.14,87.81ZM96.45,118.6A4.39,4.39,0,0,1,93.19,120a5.22,5.22,0,0,1-1-.1c-4.92-1.78-7.56-8.27-7.56-13.46.08-5.35,2.12-12.24,6.46-15.16a8.51,8.51,0,0,0-.8,4.91A16.66,16.66,0,0,0,93.47,104c1.37,2,4.37,5.23,4.58,8.86C98.19,115.3,98,117,96.45,118.6Z"/><path class="cls-4" d="M168.82,87.81H153.43c-8.66,0-15.46,7.39-15.46,18.38,0,11.35,8.07,17.78,15,17.78,10.81,0,16.34-8.59,16.34-18.39a22.53,22.53,0,0,0-1.74-8.35A26.82,26.82,0,0,1,166,92.86C165.39,89.86,167,88.42,168.82,87.81Zm-7.69,30.79a4.39,4.39,0,0,1-3.26,1.41,5.22,5.22,0,0,1-1-.1c-4.92-1.78-7.56-8.27-7.56-13.46.08-5.35,2.12-12.24,6.46-15.16a8.51,8.51,0,0,0-.8,4.91,16.66,16.66,0,0,0,3.22,7.82c1.37,2,4.37,5.23,4.58,8.86C162.88,115.3,162.65,117,161.13,118.6Z"/><path class="cls-4" d="M37.43,87.81H22c-8.66,0-15.46,7.39-15.46,18.38,0,11.35,8.07,17.78,15,17.78,10.81,0,16.34-8.59,16.34-18.39a22.53,22.53,0,0,0-1.74-8.35,26.82,26.82,0,0,1-1.58-4.38C34,89.86,35.59,88.42,37.43,87.81ZM29.74,118.6A4.39,4.39,0,0,1,26.48,120a5.22,5.22,0,0,1-1-.1c-4.92-1.78-7.56-8.27-7.56-13.46C18,101.1,20,94.21,24.34,91.3a8.51,8.51,0,0,0-.8,4.91A16.66,16.66,0,0,0,26.76,104c1.37,2,4.37,5.23,4.58,8.86C31.48,115.3,31.25,117,29.74,118.6Z"/><path class="cls-5" d="M231.56,94.1a3.33,3.33,0,0,0,3.36,0,3,3,0,0,0,1.24-1.24,3.3,3.3,0,0,0,0-3.37,3.11,3.11,0,0,0-1.25-1.25,3.44,3.44,0,0,0-1.66-.43,3.5,3.5,0,0,0-1.67.43,3.13,3.13,0,0,0-1.24,1.25,3.33,3.33,0,0,0,0,3.37A3,3,0,0,0,231.56,94.1Zm-1.1-2.91a3,3,0,0,1,.38-1.4,2.7,2.7,0,0,1,1-1,2.79,2.79,0,0,1,2.74,0,2.59,2.59,0,0,1,1,1,2.84,2.84,0,0,1,.37,1.4,2.8,2.8,0,0,1-.37,1.39,2.49,2.49,0,0,1-1,1,2.74,2.74,0,0,1-1.38.37,2.78,2.78,0,0,1-1.38-.37,2.63,2.63,0,0,1-1-1A2.91,2.91,0,0,1,230.47,91.19Z"/><path class="cls-5" d="M232.44,91.52h.2a.74.74,0,0,1,.5.15,2.64,2.64,0,0,1,.51.73l.29.58h.89l-.41-.72-.26-.44a2.84,2.84,0,0,0-.24-.27,1.32,1.32,0,0,0-.27-.13,1.17,1.17,0,0,0,.72-.34.9.9,0,0,0,.25-.65,1,1,0,0,0-.14-.53,1,1,0,0,0-.32-.35,1.77,1.77,0,0,0-.56-.14h-1.86V93h.71Zm0-1.54h.3a3.44,3.44,0,0,1,.78.05.45.45,0,0,1,.24.16.44.44,0,0,1,.09.26.5.5,0,0,1-.09.27.43.43,0,0,1-.24.17,3.31,3.31,0,0,1-.78,0h-.3Z"/></svg>